{
  "accessors": [
    {
      "bufferView": 2,
      "componentType": 5126,
      "count": 350,
      "max": [
        0.18908800184726715,
        0.1364320069551468,
        0.9473900198936462
      ],
      "min": [
        -0.16455699503421783,
        -0.1704690009355545,
        -0.029561899602413177
      ],
      "type": "VEC3"
    },
    {
      "bufferView": 2,
      "byteOffset": 4200,
      "componentType": 5126,
      "count": 350,
      "max": [
        0.9919948577880859,
        0.9894645810127258,
        0.9986047744750977
      ],
      "min": [
        -0.9961088299751282,
        -0.9998244643211365,
        -0.9986906051635742
      ],
      "type": "VEC3"
    },
    {
      "bufferView": 1,
      "componentType": 5126,
      "count": 350,
      "max": [
        2.2391743659973145,
        2.207700252532959
      ],
      "min": [
        -1.3124136924743652,
        -1.38135826587677
      ],
      "type": "VEC2"
    },
    {
      "bufferView": 0,
      "componentType": 5125,
      "count": 615,
      "type": "SCALAR"
    },
    {
      "bufferView": 2,
      "byteOffset": 8400,
      "componentType": 5126,
      "count": 63177,
      "max": [
        0.2931619882583618,
        0.28998300433158875,
        1.1418299674987793
      ],
      "min": [
        -0.2867090106010437,
        -0.28998300433158875,
        -0.04446420073509216
      ],
      "type": "VEC3"
    },
    {
      "bufferView": 2,
      "byteOffset": 766524,
      "componentType": 5126,
      "count": 63177,
      "max": [
        0.9999709129333496,
        1.0,
        1.0
      ],
      "min": [
        -0.9998888969421387,
        -1.0,
        -0.9998217821121216
      ],
      "type": "VEC3"
    },
    {
      "bufferView": 1,
      "byteOffset": 2800,
      "componentType": 5126,
      "count": 63177,
      "max": [
        2.380643844604492,
        2.4598193168640137
      ],
      "min": [
        -1.380725383758545,
        -1.4545323848724365
      ],
      "type": "VEC2"
    },
    {
      "bufferView": 0,
      "byteOffset": 2460,
      "componentType": 5125,
      "count": 140325,
      "type": "SCALAR"
    },
    {
      "bufferView": 2,
      "byteOffset": 1524648,
      "componentType": 5126,
      "count": 65533,
      "max": [
        0.23000599443912506,
        0.18421800434589386,
        1.1405099630355835
      ],
      "min": [
        -0.1739799976348877,
        -0.18324699997901917,
        -0.0377844013273716
      ],
      "type": "VEC3"
    },
    {
      "bufferView": 2,
      "byteOffset": 2311044,
      "componentType": 5126,
      "count": 65533,
      "max": [
        0.9996030330657959,
        1.0,
        0.9989985227584839
      ],
      "min": [
        -0.9998599886894226,
        -1.0,
        -0.9989730715751648
      ],
      "type": "VEC3"
    },
    {
      "bufferView": 1,
      "byteOffset": 508216,
      "componentType": 5126,
      "count": 65533,
      "max": [
        2.3788199424743652,
        2.286161184310913
      ],
      "min": [
        -1.391829013824463,
        -1.4598193168640137
      ],
      "type": "VEC2"
    },
    {
      "bufferView": 0,
      "byteOffset": 563760,
      "componentType": 5125,
      "count": 140595,
      "type": "SCALAR"
    },
    {
      "bufferView": 2,
      "byteOffset": 3097440,
      "componentType": 5126,
      "count": 65534,
      "max": [
        0.2290399968624115,
        0.22585000097751617,
        1.1299799680709839
      ],
      "min": [
        -0.22430400550365448,
        -0.22585000097751617,
        -0.04446420073509216
      ],
      "type": "VEC3"
    },
    {
      "bufferView": 2,
      "byteOffset": 3883848,
      "componentType": 5126,
      "count": 65534,
      "max": [
        0.9993299245834351,
        1.0,
        0.9986067414283752
      ],
      "min": [
        -0.9993299245834351,
        -1.0,
        -0.9988642334938049
      ],
      "type": "VEC3"
    },
    {
      "bufferView": 1,
      "byteOffset": 1032480,
      "componentType": 5126,
      "count": 65534,
      "max": [
        2.392887592315674,
        2.286161184310913
      ],
      "min": [
        -1.391829013824463,
        -1.4511926174163818
      ],
      "type": "VEC2"
    },
    {
      "bufferView": 0,
      "byteOffset": 1126140,
      "componentType": 5125,
      "count": 97350,
      "type": "SCALAR"
    },
    {
      "bufferView": 2,
      "byteOffset": 4670256,
      "componentType": 5126,
      "count": 39759,
      "max": [
        0.22620099782943726,
        0.1822119951248169,
        1.0802600383758545
      ],
      "min": [
        -0.17824499309062958,
        -0.17912399768829346,
        -0.0229738000780344
      ],
      "type": "VEC3"
    },
    {
      "bufferView": 2,
      "byteOffset": 5147364,
      "componentType": 5126,
      "count": 39759,
      "max": [
        0.998049795627594,
        1.0,
        0.9582202434539795
      ],
      "min": [
        -0.9986134171485901,
        -1.0,
        -0.9945679306983948
      ],
      "type": "VEC3"
    },
    {
      "bufferView": 1,
      "byteOffset": 1556752,
      "componentType": 5126,
      "count": 39759,
      "max": [
        2.3842530250549316,
        2.282867431640625
      ],
      "min": [
        -1.3832581043243408,
        -1.4565256834030151
      ],
      "type": "VEC2"
    },
    {
      "bufferView": 0,
      "byteOffset": 1515540,
      "componentType": 5125,
      "count": 66765,
      "type": "SCALAR"
    },
    {
      "bufferView": 2,
      "byteOffset": 5624472,
      "componentType": 5126,
      "count": 1782,
      "max": [
        0.18568100035190582,
        0.12713100016117096,
        1.0260599851608276
      ],
      "min": [
        -0.07451029866933823,
        -0.1333570033311844,
        0.9803230166435242
      ],
      "type": "VEC3"
    },
    {
      "bufferView": 2,
      "byteOffset": 5645856,
      "componentType": 5126,
      "count": 1782,
      "max": [
        0.9979013204574585,
        0.9972851276397705,
        0.999141275882721
      ],
      "min": [
        -0.9979098439216614,
        -0.9972847700119019,
        -0.9980281591415405
      ],
      "type": "VEC3"
    },
    {
      "bufferView": 1,
      "byteOffset": 1874824,
      "componentType": 5126,
      "count": 1782,
      "max": [
        0.9273216724395752,
        0.9215168952941895
      ],
      "min": [
        0.052523959428071976,
        0.03392450883984566
      ],
      "type": "VEC2"
    },
    {
      "bufferView": 0,
      "byteOffset": 1782600,
      "componentType": 5125,
      "count": 3564,
      "type": "SCALAR"
    },
    {
      "bufferView": 2,
      "byteOffset": 5667240,
      "componentType": 5126,
      "count": 8623,
      "max": [
        0.22501599788665771,
        0.16590900719165802,
        1.1573799848556519
      ],
      "min": [
        -0.11591500043869019,
        -0.17452600598335266,
        0.9475730061531067
      ],
      "type": "VEC3"
    },
    {
      "bufferView": 2,
      "byteOffset": 5770716,
      "componentType": 5126,
      "count": 8623,
      "max": [
        0.9982975125312805,
        0.9996798038482666,
        0.9980907440185547
      ],
      "min": [
        -0.9983096718788147,
        -0.9996798634529114,
        -0.9486485719680786
      ],
      "type": "VEC3"
    },
    {
      "bufferView": 1,
      "byteOffset": 1889080,
      "componentType": 5126,
      "count": 8623,
      "max": [
        0.9454185366630554,
        0.9390247464179993
      ],
      "min": [
        0.03511421009898186,
        0.017910389229655266
      ],
      "type": "VEC2"
    },
    {
      "bufferView": 0,
      "byteOffset": 1796856,
      "componentType": 5125,
      "count": 17880,
      "type": "SCALAR"
    },
    {
      "bufferView": 2,
      "byteOffset": 5874192,
      "componentType": 5126,
      "count": 603,
      "max": [
        0.1781580001115799,
        0.1327040046453476,
        1.0352599620819092
      ],
      "min": [
        -0.06320639699697495,
        -0.12332899868488312,
        0.9638460278511047
      ],
      "type": "VEC3"
    },
    {
      "bufferView": 2,
      "byteOffset": 5881428,
      "componentType": 5126,
      "count": 603,
      "max": [
        0.9933156371116638,
        0.9686711430549622,
        0.9980327486991882
      ],
      "min": [
        -0.9683640599250793,
        -0.9686669111251831,
        -0.998471200466156
      ],
      "type": "VEC3"
    },
    {
      "bufferView": 1,
      "byteOffset": 1958064,
      "componentType": 5126,
      "count": 603,
      "max": [
        0.9213553667068481,
        0.9199932217597961
      ],
      "min": [
        0.05722653120756149,
        0.03668417036533356
      ],
      "type": "VEC2"
    },
    {
      "bufferView": 0,
      "byteOffset": 1868376,
      "componentType": 5125,
      "count": 1155,
      "type": "SCALAR"
    },
    {
      "bufferView": 2,
      "byteOffset": 5888664,
      "componentType": 5126,
      "count": 124,
      "max": [
        0.1872899979352951,
        0.1770240068435669,
        0.15069900453090668
      ],
      "min": [
        -0.168271005153656,
        -0.17441000044345856,
        0.13258199393749237
      ],
      "type": "VEC3"
    },
    {
      "bufferView": 2,
      "byteOffset": 5890152,
      "componentType": 5126,
      "count": 124,
      "max": [
        -0.038657210767269135,
        0.012369340285658836,
        -0.9979314804077148
      ],
      "min": [
        -0.0642707571387291,
        -0.018795309588313103,
        -0.9992505311965942
      ],
      "type": "VEC3"
    },
    {
      "bufferView": 1,
      "byteOffset": 1962888,
      "componentType": 5126,
      "count": 124,
      "max": [
        0.4451483190059662,
        0.15725526213645935
      ],
      "min": [
        0.2965482771396637,
        0.012998159974813461
      ],
      "type": "VEC2"
    },
    {
      "bufferView": 0,
      "byteOffset": 1872996,
      "componentType": 5125,
      "count": 285,
      "type": "SCALAR"
    }
  ],
  "asset": {
    "extras": {
      "author": "JohnHoagland (https://sketchfab.com/JohnHoagland)",
      "license": "SKETCHFAB Editorial (https://sketchfab.com/licenses)",
      "source": "https://sketchfab.com/3d-models/leaning-tower-of-pisa-b2c84fa2cfe643d98b49048c0531404b",
      "title": "Leaning Tower Of Pisa"
    },
    "generator": "Sketchfab-11.45.0",
    "version": "2.0"
  },
  "bufferViews": [
    {
      "buffer": 0,
      "byteLength": 1874136,
      "name": "floatBufferViews",
      "target": 34963
    },
    {
      "buffer": 0,
      "byteLength": 1963880,
      "byteOffset": 1874136,
      "byteStride": 8,
      "name": "floatBufferViews",
      "target": 34962
    },
    {
      "buffer": 0,
      "byteLength": 5891640,
      "byteOffset": 3838016,
      "byteStride": 12,
      "name": "floatBufferViews",
      "target": 34962
    }
  ],
  "buffers": [
    {
      "byteLength": 9729656,
      "uri": "scene.bin"
    }
  ],
  "images": [
    {
      "uri": "textures/bone_baseColor.jpeg"
    }
  ],
  "materials": [
    {
      "doubleSided": true,
      "name": "black",
      "pbrMetallicRoughness": {
        "baseColorFactor": [
          0.19802327142925605,
          0.19802327142925605,
          0.19802327142925605,
          1.0
        ],
        "metallicFactor": 0.0
      }
    },
    {
      "doubleSided": true,
      "name": "bone",
      "pbrMetallicRoughness": {
        "baseColorTexture": {
          "index": 0
        },
        "metallicFactor": 0.0
      }
    },
    {
      "doubleSided": true,
      "name": "bone1",
      "pbrMetallicRoughness": {
        "baseColorTexture": {
          "index": 0
        },
        "metallicFactor": 0.0
      }
    },
    {
      "doubleSided": true,
      "name": "brass",
      "pbrMetallicRoughness": {
        "baseColorFactor": [
          0.06289321725973425,
          0.07193592670877655,
          0.08756462137077992,
          1.0
        ],
        "metallicFactor": 0.5,
        "roughnessFactor": 0.5
      }
    },
    {
      "doubleSided": true,
      "name": "bronze",
      "pbrMetallicRoughness": {
        "baseColorFactor": [
          0.0,
          0.0,
          0.0,
          1.0
        ],
        "metallicFactor": 0.5,
        "roughnessFactor": 0.9829814001577327
      }
    },
    {
      "doubleSided": true,
      "name": "brown",
      "pbrMetallicRoughness": {
        "baseColorFactor": [
          0.03709710925778361,
          0.009023284425103409,
          0.000945595066612323,
          1.0
        ],
        "metallicFactor": 0.0,
        "roughnessFactor": 0.9808544273981227
      }
    },
    {
      "doubleSided": true,
      "name": "default",
      "pbrMetallicRoughness": {
        "metallicFactor": 0.0,
        "roughnessFactor": 0.6
      }
    }
  ],
  "meshes": [
    {
      "name": "Object_0",
      "primitives": [
        {
          "attributes": {
            "NORMAL": 1,
            "POSITION": 0,
            "TEXCOORD_0": 2
          },
          "indices": 3,
          "material": 0,
          "mode": 4
        }
      ]
    },
    {
      "name": "Object_1",
      "primitives": [
        {
          "attributes": {
            "NORMAL": 5,
            "POSITION": 4,
            "TEXCOORD_0": 6
          },
          "indices": 7,
          "material": 1,
          "mode": 4
        }
      ]
    },
    {
      "name": "Object_2",
      "primitives": [
        {
          "attributes": {
            "NORMAL": 9,
            "POSITION": 8,
            "TEXCOORD_0": 10
          },
          "indices": 11,
          "material": 2,
          "mode": 4
        }
      ]
    },
    {
      "name": "Object_3",
      "primitives": [
        {
          "attributes": {
            "NORMAL": 13,
            "POSITION": 12,
            "TEXCOORD_0": 14
          },
          "indices": 15,
          "material": 2,
          "mode": 4
        }
      ]
    },
    {
      "name": "Object_4",
      "primitives": [
        {
          "attributes": {
            "NORMAL": 17,
            "POSITION": 16,
            "TEXCOORD_0": 18
          },
          "indices": 19,
          "material": 2,
          "mode": 4
        }
      ]
    },
    {
      "name": "Object_5",
      "primitives": [
        {
          "attributes": {
            "NORMAL": 21,
            "POSITION": 20,
            "TEXCOORD_0": 22
          },
          "indices": 23,
          "material": 3,
          "mode": 4
        }
      ]
    },
    {
      "name": "Object_6",
      "primitives": [
        {
          "attributes": {
            "NORMAL": 25,
            "POSITION": 24,
            "TEXCOORD_0": 26
          },
          "indices": 27,
          "material": 4,
          "mode": 4
        }
      ]
    },
    {
      "name": "Object_7",
      "primitives": [
        {
          "attributes": {
            "NORMAL": 29,
            "POSITION": 28,
            "TEXCOORD_0": 30
          },
          "indices": 31,
          "material": 5,
          "mode": 4
        }
      ]
    },
    {
      "name": "Object_8",
      "primitives": [
        {
          "attributes": {
            "NORMAL": 33,
            "POSITION": 32,
            "TEXCOORD_0": 34
          },
          "indices": 35,
          "material": 6,
          "mode": 4
        }
      ]
    }
  ],
  "nodes": [
    {
      "children": [
        1
      ],
      "matrix": [
        1.0,
        0.0,
        0.0,
        0.0,
        0.0,
        2.220446049250313e-16,
        -1.0,
        0.0,
        0.0,
        1.0,
        2.220446049250313e-16,
        0.0,
        0.0,
        0.0,
        0.0,
        1.0
      ],
      "name": "Sketchfab_model"
    },
    {
      "children": [
        2,
        3,
        4,
        5,
        6,
        7,
        8,
        9,
        10
      ],
      "name": "LeaningTowerOfPisa.obj.cleaner.materialmerger.gles"
    },
    {
      "mesh": 0,
      "name": "Object_2"
    },
    {
      "mesh": 1,
      "name": "Object_3"
    },
    {
      "mesh": 2,
      "name": "Object_4"
    },
    {
      "mesh": 3,
      "name": "Object_5"
    },
    {
      "mesh": 4,
      "name": "Object_6"
    },
    {
      "mesh": 5,
      "name": "Object_7"
    },
    {
      "mesh": 6,
      "name": "Object_8"
    },
    {
      "mesh": 7,
      "name": "Object_9"
    },
    {
      "mesh": 8,
      "name": "Object_10"
    }
  ],
  "samplers": [
    {
      "magFilter": 9729,
      "minFilter": 9987,
      "wrapS": 10497,
      "wrapT": 10497
    }
  ],
  "scene": 0,
  "scenes": [
    {
      "name": "Sketchfab_Scene",
      "nodes": [
        0
      ]
    }
  ],
  "textures": [
    {
      "sampler": 0,
      "source": 0
    }
  ]
}
